# xmcd
#
# Track frame offsets: 
#        150
#        14255
#        31037
#        49990
#        66830
#        84725
#        101240
#        125350
#        137472
#        151465
#        166347
#        184905
#        201870
#        214457
#        232817
#
# Disc length: 3257 seconds
#
# Revision: 5
# Processed by: cddbd v1.5.1PL2 Copyright (c) Steve Scherf et al.
# Submitted via: ExactAudioCopy v0.95b4
#
DISCID=ce0cb70f
DTITLE=Various Artist - Harley-Davidson Country Road Songs (Disk 1 of 2)
DYEAR=1996
DGENRE=Country
TTITLE0=Alan Jackson - Chasin' That Neon Rainbow
TTITLE1=Diamond Rio - Nowhere Bound
TTITLE2=Restless Heart - Born In a High Wind
TTITLE3=Ricky Van Shelton - Backroads
TTITLE4=Lee Roy Parnell - On the Road
TTITLE5=Vince Gill - Oklahoma Borderline
TTITLE6=Charlie Daniels Band - Uneasy Rider
TTITLE7=New Grass Revival - Callin' Baton Rouge
TTITLE8=John Berry - Ninety Miles an Hour
TTITLE9=Steve Wariner - Life's Highway
TTITLE10=Pure Prairie League - Two Lane Highway
TTITLE11=Confederate Railroad - Daddy Never Was the Cadillac Kind
TTITLE12=John Anderson - Tryin' To Make a Livin' On the Road
TTITLE13=Tanya Tucker - The Thunder Rolls
TTITLE14=Willie Nelson - On the Road Again
EXTD=LABEL =Harley-Davidson - The Right Stuff\nID =7243-8-36476-2-0\n
EXTD=UPC =72438-36476-20\nCOPYRIGHT =1996
EXTT0=
EXTT1=
EXTT2=
EXTT3=
EXTT4=
EXTT5=
EXTT6=
EXTT7=
EXTT8=
EXTT9=
EXTT10=
EXTT11=
EXTT12=
EXTT13=
EXTT14=
PLAYORDER=
